<svg width="100%" height="100%" viewBox="0 0 496 496">
    <path d="M122.476,468.027c-9.321,-6.655 -14.998,-15.995 -23.048,-22.847c-7.842,-6.676 -16.088,-5.955 -23.723,1.039c-1.718,1.574 -3.24,3.361 -4.938,4.958c-4.242,3.991 -8.367,4.282 -13.036,1.002c-4.421,-3.105 -5.625,-6.979 -2.541,-12.144c11.37,-19.037 34.571,-31.016 56.816,-16.254c7.875,5.226 13.656,12.507 20.875,18.312c17.227,13.853 39.26,11.363 53.764,-6.128c11.422,-13.773 15.265,-29.956 15.721,-47.223c0.33,-12.49 0.656,-25.032 -0.084,-37.487c-0.92,-15.473 -0.758,-30.929 -0.844,-46.396c-0.014,-2.464 -0.508,-4.135 -3.32,-4.555c-1.617,-0.241 -3.21,-0.901 -4.713,-1.593c-3.772,-1.735 -5.845,-0.098 -7.447,3.259c-3.307,6.931 -3.965,14.408 -4.175,21.839c-0.345,12.156 0.425,24.358 -0.23,36.489c-0.933,17.251 -7.182,32.469 -22.386,41.852c-24.152,14.906 -60.978,10.593 -70.64,-27.118c-4.737,-18.493 -3.462,-37.252 -2.227,-55.998c0.098,-1.495 0.079,-2.997 0.132,-4.495c0.438,-12.461 -0.504,-24.918 0.828,-37.407c1.234,-11.568 -3.686,-18.613 -13.083,-21.058c-9.562,-2.488 -17.773,3.379 -18.538,13.152c-0.207,2.638 -0.61,5.278 -1.161,7.867c-0.703,3.31 -2.891,5.148 -6.278,5.469c-4.075,0.386 -7.838,-0.285 -9.742,-4.38c-1.028,-2.211 -2.191,-4.894 -1.83,-7.128c2.005,-12.389 4.643,-24.464 15.876,-32.581c12.352,-8.926 31.175,-7.853 42.366,2.393c9.671,8.854 13.344,20.053 13.725,32.551c0.366,11.988 0.132,23.997 0.067,35.996c-0.09,16.792 0.689,33.563 2.185,50.263c0.987,11.005 7.715,20.872 22.654,19.788c9.556,-0.694 18.728,-10.45 18.895,-21.122c0.127,-8.14 -0.258,-16.257 -0.776,-24.398c-0.503,-7.914 -0.624,-15.923 0.371,-23.919c0.971,-7.799 2.702,-15.31 6.163,-22.624c-2.148,-0.627 -3.833,-1.376 -5.584,-1.59c-14.257,-1.746 -21.118,-16.586 -20.104,-30.566c0.901,-12.436 11.687,-23.081 24.892,-23.657c5.338,-0.233 6.792,-1.711 7.288,-7.116c1.697,-18.465 3.98,-36.887 7.033,-55.193c3.302,-19.799 7.112,-39.505 12.788,-58.775c6.158,-20.907 12.942,-41.587 25.658,-59.702c6.748,-9.613 14.775,-17.735 26.595,-20.547c12.537,-2.983 23.718,0.268 33.248,8.933c12.127,11.026 19.472,25.19 25.481,40.058c12.629,31.249 19.408,63.992 24.369,97.2c2.448,16.387 4.884,32.758 5.907,49.308c0.241,3.911 1.878,5.683 6.213,5.784c10.904,0.252 21.667,7.259 24.167,16.25c3.309,11.907 2.902,23.526 -6.872,32.803c-4.5,4.27 -10.529,5.333 -16.942,6.599c9.578,18.978 5.851,39.196 6.161,58.949c0.083,5.241 -0.656,10.475 0.199,15.781c1.376,8.545 8.656,16.236 16.953,17.384c10.071,1.393 18.611,-3.178 22.266,-12.093c1.516,-3.695 2.309,-7.609 2.547,-11.613c1.433,-24.113 0.917,-48.254 1.04,-72.387c0.038,-7.3 0.281,-14.715 2.127,-21.736c6.215,-23.637 30.274,-38.634 54.181,-22.922c12.091,7.946 15.816,20.975 15.734,34.864c-0.038,6.584 -3.99,9.507 -10.402,9.178c-5.186,-0.267 -7.429,-3.24 -7.668,-10.168c-0.336,-9.729 -4.497,-15.29 -12.467,-16.661c-7.599,-1.306 -15.36,2.897 -18.256,10.004c-0.551,1.352 -0.972,2.88 -0.955,4.321c0.273,23.63 0.299,47.269 1.087,70.883c0.457,13.712 -0.271,27.054 -4.828,40.118c-6.335,18.161 -20.646,28.332 -40.037,28.59c-11.868,0.159 -22.805,-2.35 -32.15,-9.848c-11.375,-9.127 -16.758,-21.434 -18.449,-35.716c-1.219,-10.292 0.995,-20.552 -0.034,-30.776c-0.976,-9.686 -0.277,-19.632 -3.904,-28.957c-0.939,-2.414 -1.365,-6.176 -4.192,-6.202c-3.856,-0.037 -7.823,1.301 -11.348,3.238c-1.013,0.556 -0.453,1.758 -0.45,2.742c0.043,18.111 -0.938,36.191 -1.562,54.284c-0.669,19.404 -1.417,38.999 4.968,57.774c4.516,13.277 12.43,23.933 25.145,30.975c12.985,7.191 31.995,2.971 41.518,-6.447c4.843,-4.79 9.4,-9.854 14.788,-14.129c6.58,-5.22 13.96,-8.325 22.107,-9.627c4.101,-0.656 8.292,0.176 12.184,1.471c11.427,3.802 20.596,10.67 26.67,21.206c2.563,4.445 1.762,9.527 -1.342,11.82c-5.596,4.136 -8.916,4.012 -13.702,-0.52c-0.726,-0.687 -1.424,-1.405 -2.151,-2.09c-12.412,-11.697 -22.923,-10.36 -33.575,2.854c-11.45,14.204 -25.208,25.575 -43.977,29.028c-16.147,2.971 -30.996,-0.285 -44.657,-9.246c-10.377,-6.808 -19.297,-15.253 -26.952,-24.958c-4.801,-6.086 -7.289,-13.476 -9.345,-20.802c-4.442,-15.83 -6.652,-32.05 -8.326,-48.429c-2.285,-22.369 -3.055,-44.741 -2.819,-67.186c0.011,-0.998 -0.058,-1.998 -0.114,-2.996c-0.093,-1.645 -1.07,-2.284 -2.622,-2.346c-1.821,-0.072 -2.85,0.677 -2.902,2.569c-0.028,1 -0.071,1.998 -0.097,2.997c-0.34,13.465 -0.124,26.972 -1.136,40.386c-1.919,25.439 -3.456,50.966 -10.822,75.665c-3.197,10.718 -8.114,20.168 -16.253,28.088c-8.142,7.923 -16.434,15.321 -26.658,20.669c-17.242,9.019 -34.374,8.417 -51.829,1.235c-4.967,-2.044 -9.247,-5.198 -13.509,-8.381Zm212.362,-225.361c-5.602,-0.264 -9.603,1.921 -13.197,5.548c-4.688,4.73 -6.082,10.161 -4.218,16.389c2.25,7.52 7.872,11.658 15.261,12.433c6.031,0.633 11.244,-2.174 14.843,-7.379c7.657,-11.072 2.144,-23.215 -12.689,-26.991Zm-191.955,10.728c-2.648,8.904 -0.346,16.202 6.26,20.628c6.138,4.113 14.155,3.816 19.883,-0.736c6.166,-4.899 8.263,-12.728 5.365,-20.155c-2.587,-6.632 -7.948,-9.747 -14.575,-10.408c-7.958,-0.793 -13.003,3.915 -16.933,10.671Zm-46.923,-100.781c-4.789,-4.45 -8.399,-8.975 -11.897,-13.634c-2.26,-3.012 -1.702,-5.609 0.394,-8.12c12.221,-14.636 24.523,-29.204 36.756,-43.83c14.464,-17.293 28.885,-34.621 43.326,-51.934c1.149,-1.378 2.131,-3.043 4.616,-2.619c1.226,3.322 -0.505,6.118 -1.906,8.781c-4.893,9.299 -11.646,17.355 -17.725,25.857c-14.097,19.714 -28.466,39.228 -41.688,59.563c-3.434,5.28 -3.345,9.415 0.23,14.439c12.797,17.984 26.423,35.336 39.796,52.88c0.703,0.923 1.384,1.877 1.945,2.888c1.037,1.868 1.442,3.912 -0.206,5.546c-1.918,1.902 -3.874,0.476 -5.314,-0.773c-3.011,-2.614 -5.802,-5.488 -8.629,-8.309c-10.844,-10.82 -21.699,-21.629 -32.473,-32.518c-2.561,-2.588 -4.825,-5.47 -7.225,-8.217Zm296.9,-35.008c3.803,4.671 7.089,8.852 10.632,12.802c3.251,3.623 2.402,6.849 -0.245,10.26c-9.416,12.137 -20.604,22.605 -31.397,33.445c-8.819,8.856 -17.647,17.704 -26.538,26.487c-1.673,1.653 -3.467,4.478 -6.217,2.089c-2.354,-2.045 -1.087,-4.858 0.358,-6.813c6.314,-8.546 12.932,-16.866 19.29,-25.38c8.047,-10.775 16.221,-21.457 23.686,-32.662c1.694,-2.543 1.956,-4.546 0.471,-7.264c-5.759,-10.54 -13.039,-20.064 -19.895,-29.849c-12.774,-18.232 -26.024,-36.13 -38.946,-54.259c-1.715,-2.406 -2.746,-5.32 -3.942,-8.065c-0.51,-1.173 -1.121,-2.713 0.339,-3.62c1.574,-0.978 2.944,0.046 3.936,1.196c3.796,4.399 7.509,8.869 11.243,13.322c14.715,17.549 29.427,35.1 44.137,52.654c4.369,5.214 8.726,10.438 13.088,15.657Z" style="fill:white;"/>
</svg>
